<?xml version="1.0" encoding="UTF-8" standalone="no"?>
<!-- Created with Inkscape (http://www.inkscape.org/) -->

<svg
   width="171mm"
   height="95mm"
   viewBox="0 0 171 94.999999"
   version="1.1"
   id="svg1"
   xml:space="preserve"
   inkscape:version="1.4.3 (0d15f75, 2025-12-25)"
   sodipodi:docname="plutah_full.svg"
   xmlns:inkscape="http://www.inkscape.org/namespaces/inkscape"
   xmlns:sodipodi="http://sodipodi.sourceforge.net/DTD/sodipodi-0.dtd"
   xmlns="http://www.w3.org/2000/svg"
   xmlns:svg="http://www.w3.org/2000/svg"><sodipodi:namedview
     id="namedview1"
     pagecolor="#686868"
     bordercolor="#000000"
     borderopacity="0.25"
     inkscape:showpageshadow="2"
     inkscape:pageopacity="0.0"
     inkscape:pagecheckerboard="0"
     inkscape:deskcolor="#d1d1d1"
     inkscape:document-units="mm"
     inkscape:zoom="1.1279926"
     inkscape:cx="343.53061"
     inkscape:cy="124.55755"
     inkscape:window-width="1440"
     inkscape:window-height="874"
     inkscape:window-x="0"
     inkscape:window-y="30"
     inkscape:window-maximized="1"
     inkscape:current-layer="layer3"
     showguides="false" /><defs
     id="defs1"><inkscape:path-effect
       effect="offset"
       id="path-effect20"
       is_visible="true"
       lpeversion="1.3"
       linejoin_type="miter"
       unit="mm"
       offset="1.7"
       miter_limit="4"
       attempt_force_join="false"
       update_on_knot_move="true" /><inkscape:path-effect
       effect="offset"
       id="path-effect19"
       is_visible="true"
       lpeversion="1.3"
       linejoin_type="miter"
       unit="mm"
       offset="1.7"
       miter_limit="4"
       attempt_force_join="false"
       update_on_knot_move="true" /><inkscape:path-effect
       effect="offset"
       id="path-effect18"
       is_visible="true"
       lpeversion="1.3"
       linejoin_type="miter"
       unit="mm"
       offset="1.7"
       miter_limit="4"
       attempt_force_join="false"
       update_on_knot_move="true" /><inkscape:path-effect
       effect="offset"
       id="path-effect17"
       is_visible="true"
       lpeversion="1.3"
       linejoin_type="miter"
       unit="mm"
       offset="1.7"
       miter_limit="4"
       attempt_force_join="false"
       update_on_knot_move="true" /><inkscape:path-effect
       effect="offset"
       id="path-effect10"
       is_visible="true"
       lpeversion="1.3"
       linejoin_type="miter"
       unit="mm"
       offset="2"
       miter_limit="4"
       attempt_force_join="false"
       update_on_knot_move="true" /></defs><g
     inkscape:groupmode="layer"
     id="layer3"
     inkscape:label="BUILD"
     style="display:inline"
     transform="translate(-110.82812,-58.656251)"><g
       id="g1"
       transform="matrix(0.99893887,0,0,0.99358477,91.658873,1.1689745)"><path
         id="path22"
         style="baseline-shift:baseline;display:inline;overflow:visible;opacity:1;vector-effect:none;enable-background:accumulate;stop-color:#000000;stop-opacity:1"
         d="m 177.01113,62.890735 -2.69751,1.064534 c 0,0 10.23329,25.815693 4.17184,64.578491 0.99842,0.0134 1.95657,0.19533 2.84685,0.51831 6.16863,-39.532573 -4.31367,-66.142275 -4.32118,-66.161335 z m -2.02572,82.358795 c -0.21014,0.80017 -0.42742,1.60462 -0.65216,2.41277 l 2.79467,0.77722 c 0.23524,-0.84594 0.46266,-1.68785 0.68212,-2.52543 -0.9964,-0.063 -1.94724,-0.29381 -2.82463,-0.66456 z"
         inkscape:label="orbit4" /><path
         id="path21"
         style="baseline-shift:baseline;display:inline;overflow:visible;opacity:1;vector-effect:none;enable-background:accumulate;stop-color:#000000;stop-opacity:1"
         d="m 162.74895,62.890735 -2.69699,1.064534 c 0,0 5.51936,13.923671 6.05027,36.673731 0.45425,-0.0733 0.92039,-0.11162 1.39527,-0.11162 0.50276,0 0.99539,0.0431 1.47484,0.12506 -0.54657,-23.341429 -6.21787,-37.737688 -6.22339,-37.751705 z m 2.79724,54.803885 c -0.80137,9.14977 -2.48258,19.20854 -5.4746,29.96768 l 2.79466,0.77722 c 3.04763,-10.95915 4.75365,-21.22482 5.55935,-30.57436 -0.30497,0.0324 -0.61458,0.0491 -0.9281,0.0491 -0.67067,0 -1.32412,-0.0759 -1.95131,-0.21963 z"
         inkscape:label="orbit3" /><path
         id="path20"
         style="baseline-shift:baseline;display:inline;overflow:visible;opacity:1;vector-effect:none;enable-background:accumulate;stop-color:#000000;stop-opacity:1"
         inkscape:label="orbit2"
         d="m 148.48729,62.890735 -2.697,1.064534 c 0,0 1.36556,3.444379 2.80345,9.706385 0.88343,-0.327804 1.83423,-0.516256 2.82618,-0.538469 -1.49683,-6.590935 -2.93263,-10.23245 -2.93263,-10.23245 z m 5.61257,27.269136 c -0.78641,0.23386 -1.61921,0.359668 -2.4815,0.359668 -0.12162,0 -0.24287,-0.0023 -0.36328,-0.0072 1.35403,14.540301 0.92027,34.260261 -5.44515,57.149991 l 2.79466,0.77722 c 6.46838,-23.25995 6.89171,-43.39632 5.49527,-58.279645 z" /><path
         id="path17"
         style="baseline-shift:baseline;display:inline;overflow:visible;opacity:1;vector-effect:none;enable-background:accumulate;stop-color:#000000;stop-opacity:1"
         d="m 134.22562,62.890735 -2.69699,1.064534 c 0,0 8.5603,21.595926 5.38417,54.941871 0.13023,-0.006 0.2616,-0.008 0.39326,-0.008 0.8578,0 1.68619,0.12404 2.4691,0.35553 3.22997,-34.063132 -5.54266,-56.336228 -5.54954,-56.353665 z m 0.17364,72.896845 c -0.77916,3.8509 -1.72197,7.81297 -2.85151,11.87472 l 2.79311,0.77722 c 1.15553,-4.15522 2.11816,-8.2106 2.91197,-12.1543 -1.00015,-0.006 -1.96044,-0.18097 -2.85357,-0.49764 z"
         inkscape:label="orbit1" /><ellipse
         style="display:inline;fill:#be0000;fill-opacity:1;stroke:#d9de3d;stroke-width:0;stroke-linecap:butt;stroke-dasharray:none;stroke-opacity:0.354651"
         id="circle13"
         cx="178.36671"
         cy="137.23225"
         inkscape:label="planet4"
         transform="translate(1.0208334e-6)"
         rx="6.9992285"
         ry="7.0371451" /><ellipse
         style="display:inline;fill:#be0000;fill-opacity:1;stroke:#d9de3d;stroke-width:0;stroke-linecap:butt;stroke-dasharray:none;stroke-opacity:0.354651"
         id="circle12"
         cx="167.49728"
         cy="109.21651"
         inkscape:label="planet3"
         transform="translate(1.0208334e-6)"
         rx="6.9992285"
         ry="7.0371451" /><ellipse
         style="display:inline;fill:#be0000;fill-opacity:1;stroke:#d9de3d;stroke-width:0;stroke-linecap:butt;stroke-dasharray:none;stroke-opacity:0.354651"
         id="circle10"
         cx="151.61803"
         cy="81.820457"
         inkscape:label="planet2"
         transform="translate(1.0208334e-6)"
         rx="6.9992285"
         ry="7.0371451" /><ellipse
         style="display:inline;fill:#be0000;fill-opacity:1;stroke:#d9de3d;stroke-width:0;stroke-linecap:butt;stroke-dasharray:none;stroke-opacity:0.354651"
         id="circle11"
         cx="137.30675"
         cy="127.58759"
         inkscape:label="planet1"
         transform="translate(1.0208334e-6)"
         rx="6.9992285"
         ry="7.0371451" /></g></g><g
     inkscape:groupmode="layer"
     id="layer1"
     inkscape:label="BUILD 1"><path
       d="M 5,7 H 45.454541 V 31.299999 H 37.363634 V 63.700002 H 61.636363 V 31.299999 H 53.545454 V 7 H 94 V 31.299999 H 85.909091 V 71.800001 L 69.72727,88 H 29.272725 L 13.090909,71.800001 V 31.299999 H 5 Z"
       id="path6"
       style="fill:#be0000;fill-opacity:1;fill-rule:evenodd;stroke-width:0.809544" /></g></svg>
